<svg xmlns="http://www.w3.org/2000/svg" width="16" height="16" viewBox="0 0 16 16"><g fill="#e0e0e0"><path stroke-width=".583" d="m4 4.3355761a3.4999999 3.4999999 0 0 0 -3.4999999 3.5 3.4999999 3.4999999 0 0 0 3.4999999 3.4999999 3.4999999 3.4999999 0 0 0 3.5000001-3.4999999 3.4999999 3.4999999 0 0 0 -3.5000001-3.5zm0 1.1666666a2.3333333 2.3333333 0 0 1 2.3333335 2.3333334 2.3333333 2.3333333 0 0 1 -2.3333335 2.3333339 2.3333333 2.3333333 0 0 1 -2.3333333-2.3333339 2.3333333 2.3333333 0 0 1 2.3333333-2.3333334z"/><path stroke-width=".583" d="m12 4.3355761a3.4999999 3.4999999 0 0 0 -3.4999999 3.5 3.4999999 3.4999999 0 0 0 3.4999999 3.4999999 3.4999999 3.4999999 0 0 0 3.5-3.4999999 3.4999999 3.4999999 0 0 0 -3.5-3.5zm0 1.1666666a2.3333333 2.3333333 0 0 1 2.333334 2.3333334 2.3333333 2.3333333 0 0 1 -2.333334 2.3333339 2.3333333 2.3333333 0 0 1 -2.3333333-2.3333339 2.3333333 2.3333333 0 0 1 2.3333333-2.3333334z"/><rect width="10" height="2" x="3" y="7" ry="1"/></g></svg>