<svg xmlns="http://www.w3.org/2000/svg" width="16" height="16" viewBox="0 0 4.233 4.233"><g stroke="#36acd4" stroke-linejoin="round"><g stroke-width=".265" transform="matrix(.11853772 0 0 .11327115 -.113129 -29.402827)"><circle cx="14.695" cy="14.989" r="12.7" fill="#303d5a" stroke-dasharray="1.9 1.9" stroke-dashoffset="5.699" stroke-linecap="round" stroke-width="1.9" transform="matrix(1.2230263 0 0 1.2798912 .928827 258.98627)"/><path fill="#fdfdfd" stroke-width="1.632" d="m27.067216 286.66103q-1.623683.7453-3.55347 1.30427-1.916478.54566-3.713177.54566-2.315745 0-4.245532-.63882-1.929787-.63883-3.287292-1.91649-1.370815-1.29096-2.116112-3.22075-.7452973-1.94309-.7452973-4.53831 0-4.75128 2.7682463-7.4929 2.781555-2.75495 7.625987-2.75495 1.690228 0 3.446999.41258 1.770081.39926 3.806339 1.37082v3.12759h-.23956q-.412574-.31942-1.197799-.83847-.785223-.51904-1.54383-.86507-.918312-.41258-2.089493-.67875-1.157872-.27949-2.635157-.27949-3.32722 0-5.270317 2.14272-1.929786 2.12943-1.929786 5.77606 0 3.84626 2.022949 5.989 2.022949 2.12941 5.509875 2.12941 1.277652 0 2.541996-.25286 1.277652-.25288 2.235891-.65214v-4.85774h-5.310242v-2.31574h7.918782z"/><g fill="#fff" stroke-linecap="round"><ellipse cx="15.749" cy="274.455" stroke-width="1.183" rx="2.313" ry="2.42" transform="matrix(.99991254 -.01322524 .01207634 .99992708 0 0)"/><ellipse cx="25.401" cy="275.306" stroke-width=".744" rx="1.455" ry="1.523"/></g></g><g fill="#fff" stroke-linecap="round" stroke-width=".529"><circle cx="11.4" cy="-19.237" r="0"/><circle cx="21.161" cy="-19.199" r="0"/></g></g></svg>