<svg xmlns="http://www.w3.org/2000/svg" xmlns:osb="http://www.openswatchbook.org/uri/2009/osb" xmlns:svg="http://www.w3.org/2000/svg" id="svg8" width="123.18" height="123.18" version="1.1" viewBox="0 0 32.591 32.591"><defs id="defs2"><marker id="Arrow1Send" orient="auto" refX="0" refY="0" style="overflow:visible"><path id="path846" d="M 0,0 5,-5 -12.5,0 5,5 Z" transform="matrix(-0.2,0,0,-0.2,-1.2,0)" style="fill-rule:evenodd;stroke:#000;stroke-width:1.00000003pt"/></marker><marker id="Arrow1Lstart" orient="auto" refX="0" refY="0" style="overflow:visible"><path id="path831" d="M 0,0 5,-5 -12.5,0 5,5 Z" transform="matrix(0.8,0,0,0.8,10,0)" style="fill-rule:evenodd;stroke:#000;stroke-width:1.00000003pt"/></marker><linearGradient id="linearGradient2869" osb:paint="solid"><stop style="stop-color:#000;stop-opacity:1" id="stop2867" offset="0"/></linearGradient></defs><metadata id="metadata5"/><g id="layer3" transform="translate(1.6005216,1.3062454)" style="display:inline"><circle style="opacity:1;fill:#303d5a;fill-opacity:1;stroke:#36acd4;stroke-width:1.89970827;stroke-linecap:round;stroke-linejoin:round;stroke-miterlimit:4;stroke-dasharray:1.89970829,1.89970829;stroke-dashoffset:5.69912481;stroke-opacity:1;paint-order:normal" id="path3693" cx="14.695" cy="14.989" r="12.7"/></g><g id="layer1" transform="translate(1.6005216,-261.82708)" style="display:inline"><flowRoot id="flowRoot1394" transform="matrix(0.26458333,0,0,0.26458333,0,263.13332)" xml:space="preserve" style="font-style:normal;font-weight:400;font-size:64px;line-height:1.25;letter-spacing:0;word-spacing:0;fill:#000;fill-opacity:1;stroke:none"><flowRegion id="flowRegion1396" style="font-size:64px"><rect id="rect1398" width="96" height="48" x="56" y="40" style="font-size:64px"/></flowRegion><flowPara id="flowPara1400"/></flowRoot><g style="font-style:normal;font-weight:400;font-size:25.39999962px;line-height:1.25;letter-spacing:0;word-spacing:0;fill:#000;fill-opacity:1;stroke:none;stroke-width:.26458332" id="text1404" aria-label="G" transform="matrix(0.81764389,0,0,0.7813164,-0.75944944,60.783101)"><path style="font-size:25.39999962px;opacity:1;fill:#fdfdfd;fill-opacity:1;stroke:#36acd4;stroke-width:1.63226295;stroke-linecap:butt;stroke-linejoin:round;stroke-miterlimit:4;stroke-dasharray:none;stroke-dashoffset:0;stroke-opacity:1;paint-order:fill markers stroke" id="path1406" d="m 27.067216,286.66103 q -1.623683,0.7453 -3.55347,1.30427 -1.916478,0.54566 -3.713177,0.54566 -2.315745,0 -4.245532,-0.63882 -1.929787,-0.63883 -3.287292,-1.91649 -1.370815,-1.29096 -2.116112,-3.22075 -0.7452973,-1.94309 -0.7452973,-4.53831 0,-4.75128 2.7682463,-7.4929 2.781555,-2.75495 7.625987,-2.75495 1.690228,0 3.446999,0.41258 1.770081,0.39926 3.806339,1.37082 v 3.12759 h -0.23956 q -0.412574,-0.31942 -1.197799,-0.83847 -0.785223,-0.51904 -1.54383,-0.86507 -0.918312,-0.41258 -2.089493,-0.67875 -1.157872,-0.27949 -2.635157,-0.27949 -3.32722,0 -5.270317,2.14272 -1.929786,2.12943 -1.929786,5.77606 0,3.84626 2.022949,5.989 2.022949,2.12941 5.509875,2.12941 1.277652,0 2.541996,-0.25286 1.277652,-0.25288 2.235891,-0.65214 v -4.85774 h -5.310242 v -2.31574 h 7.918782 z"/><ellipse style="opacity:1;fill:#fff;fill-opacity:1;stroke:#36acd4;stroke-width:1.18287659;stroke-linecap:round;stroke-linejoin:round;stroke-miterlimit:4;stroke-dasharray:none;stroke-dashoffset:0;stroke-opacity:1;paint-order:normal" id="path1197" cx="15.749" cy="274.455" rx="2.313" ry="2.42" transform="matrix(0.99991254,-0.01322524,0.01207634,0.99992708,0,0)"/><ellipse style="font-style:normal;font-weight:400;font-size:25.39999962px;line-height:1.25;letter-spacing:0;word-spacing:0;display:inline;opacity:1;fill:#fff;fill-opacity:1;stroke:#36acd4;stroke-width:.74443805;stroke-linecap:round;stroke-linejoin:round;stroke-miterlimit:4;stroke-dasharray:none;stroke-dashoffset:0;stroke-opacity:1;paint-order:normal" id="path1197-0" cx="25.401" cy="275.306" rx="1.455" ry="1.523"/></g></g><g id="layer2" transform="translate(1.6005216,1.3062454)" style="display:inline"><circle style="display:inline;opacity:1;fill:#fff;fill-opacity:1;stroke:#36acd4;stroke-width:.5291667;stroke-linecap:round;stroke-linejoin:round;stroke-miterlimit:4;stroke-dasharray:none;stroke-dashoffset:0;stroke-opacity:1;paint-order:normal" id="path1099" cx="9.799" cy="270.948" r="0" transform="translate(0,-263.13332)"/><circle style="display:inline;opacity:1;fill:#fff;fill-opacity:1;stroke:#36acd4;stroke-width:.5291667;stroke-linecap:round;stroke-linejoin:round;stroke-miterlimit:4;stroke-dasharray:none;stroke-dashoffset:0;stroke-opacity:1;paint-order:normal" id="path1099-6" cx="19.56" cy="270.986" r="0" transform="translate(0,-263.13332)"/></g></svg>