<svg xmlns="http://www.w3.org/2000/svg" xmlns:osb="http://www.openswatchbook.org/uri/2009/osb" xmlns:svg="http://www.w3.org/2000/svg" id="svg4" width="16" height="16" version="1.1" viewBox="0 0 16 16"><metadata id="metadata10"/><defs id="defs8"><linearGradient id="linearGradient2285" osb:paint="solid"><stop style="stop-color:#000;stop-opacity:1" id="stop2283" offset="0"/></linearGradient></defs><path style="color:#000;font-style:normal;font-variant:normal;font-weight:400;font-stretch:normal;font-size:medium;line-height:normal;font-family:sans-serif;font-variant-ligatures:normal;font-variant-position:normal;font-variant-caps:normal;font-variant-numeric:normal;font-variant-alternates:normal;font-feature-settings:normal;text-indent:0;text-align:start;text-decoration:none;text-decoration-line:none;text-decoration-style:solid;text-decoration-color:#000;letter-spacing:normal;word-spacing:normal;text-transform:none;writing-mode:lr-tb;direction:ltr;text-orientation:mixed;dominant-baseline:auto;baseline-shift:baseline;text-anchor:start;white-space:normal;shape-padding:0;clip-rule:nonzero;display:inline;overflow:visible;visibility:visible;opacity:1;isolation:auto;mix-blend-mode:normal;color-interpolation:sRGB;color-interpolation-filters:linearRGB;solid-color:#000;solid-opacity:1;vector-effect:none;fill:#000;fill-opacity:1;fill-rule:nonzero;stroke:none;stroke-width:1.125;stroke-linecap:butt;stroke-linejoin:round;stroke-miterlimit:4;stroke-dasharray:none;stroke-dashoffset:21.53999901;stroke-opacity:1;paint-order:markers fill stroke;color-rendering:auto;image-rendering:auto;shape-rendering:auto;text-rendering:auto;enable-background:accumulate" id="rect2289-5-3-9-6-3" d="M 18.9375,8.375 A 0.56255625,0.56255625 0 0 0 18.375,8.9375 v 1.4375 h -1.4375 a 0.56255625,0.56255625 0 0 0 -0.5625,0.5625 v 4.5 A 0.56255625,0.56255625 0 0 0 16.9375,16 h 4.5 A 0.56255625,0.56255625 0 0 0 22,15.4375 V 14 h 1.4375 A 0.56255625,0.56255625 0 0 0 24,13.4375 v -1.125 -2.25 -1.125 A 0.56255625,0.56255625 0 0 0 23.4375,8.375 Z"><desc id="desc818">Used to clip the base icon</desc></path><path style="opacity:1;fill:#a5b7f3;fill-opacity:1;stroke:none;stroke-width:1.125;stroke-linecap:butt;stroke-linejoin:round;stroke-miterlimit:4;stroke-dasharray:none;stroke-dashoffset:21.53999901;stroke-opacity:1;paint-order:markers fill stroke" id="rect2289-5-3-9-6-4-7" d="m 11.000001,8.9999995 v 0 2.0000015 H 13.5 V 13.5 h 2.000001 V 12.375001 10.125003 8.9999995 Z M 13.5,13.5 H 11.000001 V 11.000001 H 9.0000005 v 4.5 0 H 13.5 v 0 z"/></svg>